<svg xmlns="http://www.w3.org/2000/svg" viewBox="0 0 378.29 331.47"><defs><style>.cls-1{fill:#fff;}.cls-2{fill:#aae2ff;}</style></defs><g id="Layer_2" data-name="Layer 2"><g id="Layer_1-2" data-name="Layer 1"><path class="cls-1" d="M298.29,81.19c-1.63,0-3.25.07-4.85.17C285.69,29.62,234.67-8,178.39,6.63A89.68,89.68,0,0,0,113.87,73c-6.8,29.23.4,56.86,16.22,77.55L3,228.05a12,12,0,0,0,6.05,15.86l130.52,81.56a12,12,0,0,0,15.85-6.06l98.14-98.84A76.86,76.86,0,1,0,298.29,81.19Z"/><path d="M298.29,81.74c-.47,0-5,.19-5.33.19l-.07-.49c-3.95-27.37-21.84-52.15-46.33-64.69-42.83-22.39-98.3-5.69-120.47,37.53a91.32,91.32,0,0,0-3.27,76.87,94.71,94.71,0,0,0,12,20.44l-3,1.74c-31.86,18.3-64.85,37.56-96.11,56.79-10.57,6.49-21.15,13-31.65,19.56l.74-.85A10,10,0,0,0,10,242q16.54,10,33.16,19.89C62.91,273.3,90,290,109.28,301.35c11,6.59,21.93,13.31,32.89,20l-.59-.31a7.13,7.13,0,0,0,5.39,0,7.25,7.25,0,0,0,4.16-4.5l.69-.71c28.71-29.59,69-70.62,97.57-99.42l3.55-3.56,4.07,2.93a72,72,0,0,0,63.7,10.07c33.41-10.54,55.54-44.75,50.82-79.64C367.25,109.8,335,81.5,298.29,81.74Zm0-1.1c37.64-.38,71.66,27.62,78.49,64.73,6.43,31.67-8.1,65-35.3,82.36-27.21,17.94-65,16.88-91.34-2.36l7.62-.64C229.51,253.57,188,294.1,159,323l1-1.51a17,17,0,0,1-22.85,8.29c-10.87-7-21.78-13.91-32.6-21-31.05-20.1-65.6-43.05-96.68-63.1C2,243.08-2.23,234.61,1.27,227.28l.26-.56.49-.29c26.42-15.74,53.31-32.07,79.35-48.54,14.51-9.13,32.56-20.68,47-30.06l-.88,4.71C88.42,104.14,106.71,29.31,165.22,6.45A95.43,95.43,0,0,1,294,81.27l-.59-.47,4.89-.16Z"/><path class="cls-2" d="M328.16,116.63a62.33,62.33,0,0,1-71.73,77.86,65.56,65.56,0,0,0,33.53,9c32.27,0,58.43-22.14,58.43-49.44C348.39,139.08,340.54,125.69,328.16,116.63Z"/><path class="cls-2" d="M264.1,67.5a75,75,0,0,1-86.32,93.71A79,79,0,0,0,218.13,172c38.83,0,70.31-26.64,70.31-59.5C288.44,94.52,279,78.41,264.1,67.5Z"/><path class="cls-2" d="M240.52,205.7l-97.75,97.76L63,252.9s21.35-24.64,79.78-20.23C202.32,237.16,240.52,205.7,240.52,205.7Z"/></g></g></svg>